{"title":"Sherlock Holmes: A Game of Shadows (2011)Mp-4[DaScubaDude]","uid":12352244,"size":1575134036,"categoryP":"video","categoryS":"movies","magnet":"?xt=urn:btih:9e6932c8c7d6f0f3bfe576a0bbb1900316f0ce4f&amp;dn=Sherlock+Holmes%3A+A+Game+of+Shadows+%282011%29Mp-4%5BDaScubaDude%5D&amp;tr=udp%3A%2F%2Ftracker.openbittorrent.com%3A80&amp;tr=udp%3A%2F%2Fopen.demonii.com%3A1337&amp;tr=udp%3A%2F%2Ftracker.coppersurfer.tk%3A6969&amp;tr=udp%3A%2F%2Fexodus.desync.com%3A6969","seeders":1,"leechers":0,"uploader":"dascuba","files":1,"time":1441441439,"description":"Sherlock Holmes: A Game of Shadows (2011)\nPG-13  |  129 min  |  Action, Adventure, Crime  |  16 December 2011 (USA)\n7.5 Your rating:   -/10   Ratings: 7.5/10 from 303,365 users   Metascore: 48/100 \nReviews: 404 user | 374 critic | 38 from Metacritic.com\nSherlock Holmes and his sidekick Dr. Watson join forces to outwit and bring down their fiercest adversary, Professor Moriarty.\n\nDirector: Guy Ritchie\nWriters: Michele Mulroney, Kieran Mulroney, 1 more credit Â»\nStars: Robert Downey Jr., Jude Law, Jared Harris |\n\nGeneral\nComplete name       : C:Sherlock Holmes A Game of ShadowsSHERLOCKHOLMES_GAME_OF_SHADOWS_Title1.mp4\nFormat                                   : MPEG-4\nFormat profile                           : Base Media\nCodec ID                                 : isom\nFile size                                : 1.47 GiB\nDuration                                 : 2h 8mn\nOverall bit rate mode                    : Constant\nOverall bit rate                         : 1 633 Kbps\nMovie name                               : SHERLOCKHOLMES_GAME_OF_SHADOWS\nGenre                                    : Mystery\nWriting application                      : Lavf54.6.100\n\nVideo\nID                                       : 1\nFormat                                   : MPEG-4 Visual\nFormat settings, BVOP                    : No\nFormat settings, QPel                    : No\nFormat settings, GMC                     : No warppoints\nFormat settings, Matrix                  : Default (H.263)\nCodec ID                                 : 20\nDuration                                 : 2h 8mn\nBit rate mode                            : Constant\nBit rate                                 : 1 499 Kbps\nWidth                                    : 720 pixels\nHeight                                   : 404 pixels\nDisplay aspect ratio                     : 16:9\nFrame rate mode                          : Constant\nFrame rate                               : 29.970 fps\nColor space                              : YUV\nChroma subsampling                       : 4:2:0\nBit depth                                : 8 bits\nScan type                                : Progressive\nCompression mode                         : Lossy\nBits/(Pixel*Frame)                       : 0.172\nStream size                              : 1.35 GiB (92%)\nWriting library                          : Lavc54.23.100\n\nAudio\nID                                       : 2\nFormat                                   : MPEG Audio\nFormat version                           : Version 1\nFormat profile                           : Layer 3\nCodec ID                                 : 6B\nDuration                                 : 2h 8mn\nBit rate mode                            : Constant\nBit rate                                 : 128 Kbps\nChannel(s)                               : 2 channels\nSampling rate                            : 44.1 KHz\nCompression mode                         : Lossy\nStream size                              : 118 MiB (8%)\nWriting library                          : LAME3.99.5","torrent":{"xt":"urn:btih:9e6932c8c7d6f0f3bfe576a0bbb1900316f0ce4f","amp;dn":"Sherlock+Holmes%3A+A+Game+of+Shadows+%282011%29Mp-4%5BDaScubaDude%5D","amp;tr":["udp%3A%2F%2Ftracker.openbittorrent.com%3A80","udp%3A%2F%2Fopen.demonii.com%3A1337","udp%3A%2F%2Ftracker.coppersurfer.tk%3A6969","udp%3A%2F%2Fexodus.desync.com%3A6969"],"infoHash":"9e6932c8c7d6f0f3bfe576a0bbb1900316f0ce4f","infoHashBuffer":{"type":"Buffer","data":[158,105,50,200,199,214,240,243,191,229,118,160,187,177,144,3,22,240,206,79]},"announce":[],"urlList":[]}}